<svg width="17" height="22" viewBox="0 0 17 22" fill="none" xmlns="http://www.w3.org/2000/svg">
<path d="M7.39313 22L5.35229 20.0297L2.71985 21.1394L4.6003 11.3794L9.27262 12.2398L7.39313 22Z" fill="url(#paint0_linear_1157_11410)"/>
<path d="M9.49739 20.7665L11.301 19.0807L13.6506 20.051L11.9229 11.6353L7.76868 12.3508L9.49739 20.7665Z" fill="url(#paint1_linear_1157_11410)"/>
<path d="M4.23372 4.17154C5.36938 3.07292 6.90244 2.4567 8.5 2.4567C10.0976 2.4567 11.6306 3.07292 12.7663 4.17154C13.3261 4.71301 13.7706 5.35767 14.0739 6.06821C14.3773 6.77876 14.5335 7.54107 14.5335 8.31104C14.5335 9.081 14.3773 9.84331 14.0739 10.5539C13.7706 11.2644 13.3261 11.9091 12.7663 12.4505C11.6306 13.5492 10.0976 14.1654 8.5 14.1654C6.90244 14.1654 5.36938 13.5492 4.23372 12.4505C3.67386 11.9091 3.2294 11.2644 2.92607 10.5539C2.62273 9.84331 2.46654 9.081 2.46654 8.31104C2.46654 7.54107 2.62273 6.77876 2.92607 6.06821C3.2294 5.35767 3.67386 4.71301 4.23372 4.17154V4.17154Z" fill="url(#paint2_linear_1157_11410)"/>
<path d="M8.54728 12.9854C11.1902 12.9854 13.3327 10.9189 13.3327 8.36976C13.3327 5.82063 11.1902 3.75415 8.54728 3.75415C5.90436 3.75415 3.76184 5.82063 3.76184 8.36976C3.76184 10.9189 5.90436 12.9854 8.54728 12.9854Z" fill="url(#paint3_linear_1157_11410)"/>
<path d="M3.75666 7.53595C3.97846 6.31318 4.68627 5.22597 5.7254 4.51191C6.76452 3.79784 8.05048 3.51499 9.30225 3.72515C9.92192 3.82224 10.5159 4.03814 11.0499 4.36045C11.584 4.68275 12.0476 5.10509 12.4141 5.60319C12.7807 6.10129 13.0429 6.66532 13.1857 7.26285C13.3285 7.86038 13.3492 8.47963 13.2464 9.08498C13.0245 10.3079 12.3166 11.3952 11.2772 12.1093C10.2379 12.8234 8.95171 13.1061 7.69982 12.8956C7.08024 12.7984 6.48642 12.5824 5.9525 12.2601C5.41857 11.9378 4.95507 11.5154 4.58864 11.0173C4.2222 10.5193 3.96006 9.95529 3.81728 9.35784C3.6745 8.76038 3.6539 8.14122 3.75666 7.53595H3.75666Z" fill="url(#paint4_linear_1157_11410)"/>
<path d="M16.2557 8.34092L15.6746 7.61398C15.4393 7.31996 15.2666 6.98264 15.1671 6.62223C15.0676 6.26181 15.043 5.88563 15.095 5.5158L15.2242 4.60422L14.345 4.257C13.9895 4.11665 13.6661 3.90825 13.3942 3.64404C13.1223 3.37983 12.907 3.06516 12.7613 2.71849L12.4026 1.86654L11.4623 1.99155C11.0816 2.04218 10.6946 2.01856 10.3233 1.92218C9.95197 1.8258 9.60345 1.65858 9.29856 1.43L8.54945 0.866455L7.79986 1.43C7.495 1.65862 7.14695 1.82591 6.7756 1.9223C6.40426 2.01868 6.01727 2.04223 5.63658 1.99155L4.69635 1.86654L4.33812 2.71849C4.19206 3.06514 3.9768 3.37973 3.70474 3.64392C3.43269 3.90812 3.10947 4.11657 2.75395 4.257L1.87471 4.60422L2.0034 5.5158C2.05527 5.8857 2.03056 6.26193 1.93089 6.62235C1.83122 6.98276 1.65877 7.32004 1.42332 7.61398L0.842285 8.34092L1.42332 9.06786C1.65877 9.3618 1.83122 9.69896 1.93089 10.0594C2.03056 10.4198 2.05527 10.7961 2.0034 11.166L1.87471 12.0776L2.75395 12.4257C3.10947 12.5661 3.43269 12.7745 3.70474 13.0387C3.9768 13.3029 4.19206 13.6175 4.33812 13.9642L4.69635 14.8162L5.63658 14.6912C6.01733 14.6407 6.40426 14.6643 6.7756 14.7608C7.14695 14.8574 7.49507 15.0249 7.79986 15.2537L8.54945 15.8171L9.29856 15.2537C9.60338 15.025 9.95148 14.8575 10.3228 14.761C10.6942 14.6644 11.0816 14.6407 11.4623 14.6912L12.4026 14.8162L12.7613 13.9642C12.907 13.6175 13.1223 13.3028 13.3942 13.0386C13.6661 12.7744 13.9895 12.566 14.345 12.4257L15.2242 12.0776L15.095 11.166C15.043 10.7962 15.0676 10.4199 15.1671 10.0595C15.2666 9.69908 15.4393 9.36187 15.6746 9.06786L16.2557 8.34092ZM12.7978 12.3112L12.3987 11.9267C12.4748 11.8497 12.5486 11.7705 12.6201 11.6891L13.0527 12.041C12.9701 12.1333 12.885 12.2234 12.7978 12.3112V12.3112ZM9.55258 13.4239C9.66175 13.4037 9.77003 13.3806 9.87624 13.3537L10.0227 13.8825C9.89977 13.9132 9.77691 13.9392 9.65103 13.9623L9.55258 13.4239ZM10.0107 13.319C10.1169 13.2892 10.2224 13.2564 10.3267 13.2228L10.5231 13.7373C10.4031 13.7786 10.282 13.8162 10.16 13.8498L10.0107 13.319ZM10.4573 13.1748C10.5609 13.1363 10.6629 13.0949 10.7632 13.0507L11.0009 13.5469C10.8861 13.5982 10.7692 13.6457 10.6498 13.6893L10.4573 13.1748ZM8.54849 13.2776C7.55178 13.2693 6.57978 12.9727 5.75518 12.4252C4.93059 11.8777 4.29011 11.1037 3.91459 10.2009C3.53907 9.29816 3.44552 8.30694 3.6452 7.3521C3.84487 6.39727 4.329 5.52153 5.03681 4.83534C5.74462 4.14914 6.64446 3.68322 7.62267 3.49614C8.60088 3.30906 9.61356 3.40921 10.5336 3.78408C11.4537 4.15894 12.2396 4.79175 12.7925 5.60266C13.3454 6.41356 13.6405 7.36633 13.6405 8.34092C13.6378 8.99217 13.5042 9.63645 13.2467 10.2371C12.9893 10.8377 12.6133 11.3829 12.1404 11.8415C11.6674 12.3 11.1064 12.6629 10.4899 12.9095C9.87346 13.1561 9.21358 13.2816 8.54753 13.2787L8.54849 13.2776ZM8.47934 14.0623C8.3515 14.0623 8.22392 14.0556 8.09903 14.0469L8.14801 13.5017C8.25717 13.5094 8.36821 13.5142 8.47934 13.5152V14.0623ZM8.94946 13.5017L8.99892 14.0469C8.87402 14.0565 8.74597 14.0613 8.61812 14.0623V13.5152C8.72827 13.5142 8.83933 13.5094 8.9485 13.5017H8.94946ZM7.44596 13.9632C7.32106 13.9402 7.19722 13.9142 7.07429 13.8834L7.22075 13.3546C7.32794 13.3815 7.43622 13.4046 7.5444 13.4248L7.44596 13.9632ZM6.77032 13.2209C6.87457 13.2565 6.9796 13.2892 7.08581 13.317L6.93935 13.846C6.8174 13.8123 6.69678 13.7747 6.5768 13.7334L6.77032 13.2209ZM6.44667 13.6893C6.32767 13.645 6.21071 13.5978 6.09564 13.5469L6.33478 13.0507C6.43313 13.0949 6.53741 13.1363 6.64067 13.1748L6.44667 13.6893ZM7.56313 3.2541C7.4579 3.27333 7.35236 3.29542 7.24812 3.32042L7.10262 2.79162C7.22194 2.76213 7.34304 2.73641 7.46565 2.71462L7.56313 3.2541ZM7.11366 3.35024C7.0104 3.37812 6.90813 3.40887 6.80586 3.44637L6.60898 2.93201C6.72568 2.8929 6.84386 2.85695 6.96384 2.82425L7.11366 3.35024ZM6.67476 3.48874C6.57642 3.52528 6.47827 3.56464 6.37992 3.60695L6.14174 3.11078C6.25386 3.06142 6.36869 3.01593 6.48604 2.97426L6.67476 3.48874ZM6.25123 3.66376C6.15354 3.70863 6.05783 3.75632 5.96407 3.80696L5.68171 3.33298C5.78989 3.27432 5.9 3.21952 6.01113 3.16759L6.25123 3.66376ZM5.84306 3.87434C5.75062 3.92723 5.65882 3.98297 5.57031 4.04067L5.24617 3.59263C5.34452 3.52532 5.45349 3.46178 5.56166 3.40024L5.84306 3.87434ZM5.4565 4.11755C5.36865 4.17845 5.28256 4.24263 5.19864 4.30994L4.83609 3.89066C4.93246 3.81501 5.03062 3.74232 5.13093 3.67245L5.4565 4.11755ZM5.09155 4.39258C5.00894 4.45989 4.92914 4.5301 4.85145 4.60222L4.45337 4.21756C4.54188 4.13423 4.63376 4.0535 4.72948 3.97529L5.09155 4.39258ZM4.75349 4.69742C4.67777 4.77146 4.60391 4.8484 4.53212 4.92725L4.09946 4.57534C4.18142 4.48431 4.26611 4.39614 4.35397 4.31088L4.75349 4.69742ZM4.44232 5.02913C4.37348 5.10927 4.30821 5.19172 4.24592 5.27634L3.78349 4.96188C3.85627 4.86443 3.93226 4.76823 4.01159 4.67335L4.44232 5.02913ZM4.16237 5.38597C4.10074 5.47187 4.04156 5.55963 3.98518 5.64938L3.49345 5.37541C3.55902 5.2722 3.62721 5.17087 3.69802 5.07151L4.16237 5.38597ZM3.91459 5.7657C3.86083 5.85673 3.80975 5.94942 3.76188 6.04366L3.24951 5.81195C3.30557 5.70329 3.36379 5.59655 3.42575 5.49173L3.91459 5.7657ZM3.70186 6.16479C3.65662 6.26095 3.61443 6.35716 3.57509 6.45332L3.04399 6.26574C3.08824 6.15228 3.14226 6.0408 3.19045 5.93215L3.70186 6.16479ZM3.52611 6.58021C3.48972 6.67636 3.45619 6.77927 3.42767 6.88023L2.88168 6.7389C2.91709 6.62159 2.9556 6.50715 2.99789 6.39369L3.52611 6.58021ZM3.38829 7.01005C3.36076 7.11102 3.33598 7.21386 3.31434 7.31771L2.75875 7.22158C2.78334 7.10234 2.81081 6.98414 2.84327 6.86779L3.38829 7.01005ZM3.28985 7.45047C3.27117 7.55432 3.25654 7.6581 3.24375 7.76387L2.68096 7.71587C2.69473 7.59471 2.71232 7.47451 2.7333 7.35527L3.28985 7.45047ZM3.23079 7.89757C3.22161 8.00206 3.21564 8.1075 3.21302 8.21391H2.64879C2.64879 8.09179 2.65862 7.97072 2.66944 7.84956L3.23079 7.89757ZM3.2111 8.34855C3.2111 8.45496 3.21524 8.56081 3.2231 8.66595L2.66031 8.71396C2.65244 8.59376 2.64783 8.47161 2.64783 8.34949L3.2111 8.34855ZM3.23271 8.79953C3.24254 8.9053 3.2544 9.01108 3.27112 9.11493L2.71457 9.21106C2.69589 9.09183 2.68121 8.97071 2.6704 8.84859L3.23271 8.79953ZM3.29465 9.24769C3.31334 9.3525 3.33631 9.45633 3.36188 9.55922L2.8159 9.70054C2.78639 9.58227 2.75976 9.46308 2.73714 9.34288L3.29465 9.24769ZM3.39309 9.68904C3.42161 9.79193 3.45318 9.89387 3.49153 9.99388L2.96044 10.1813C2.92011 10.0659 2.88292 9.9496 2.85047 9.83037L3.39309 9.68904ZM3.53475 10.1208C3.57311 10.2169 3.61441 10.3189 3.65768 10.416L3.14531 10.6477C3.09417 10.5361 3.04692 10.4227 3.00365 10.3082L3.53475 10.1208ZM3.71579 10.5391C3.76299 10.6353 3.81399 10.7314 3.86513 10.8275L3.37341 11.1016C3.31243 10.9945 3.25526 10.8856 3.20149 10.7747L3.71579 10.5391ZM3.93428 10.941C3.98935 11.0333 4.04744 11.1237 4.10907 11.2122L3.64616 11.5266C3.57601 11.4254 3.51025 11.3215 3.44928 11.2151L3.93428 10.941ZM4.18686 11.3257C4.25242 11.4129 4.31818 11.4978 4.38374 11.5805L3.95156 11.9324C3.87158 11.8369 3.79528 11.7407 3.72251 11.6439L4.18686 11.3257ZM4.47498 11.6843C4.54579 11.766 4.61866 11.8449 4.69635 11.9219L4.29682 12.3064C4.20897 12.2179 4.12427 12.127 4.04232 12.0334L4.47498 11.6843ZM4.79383 12.018C4.87185 12.093 4.9521 12.1657 5.03537 12.2362L4.67282 12.6555C4.57775 12.5747 4.48478 12.4911 4.3943 12.4045L4.79383 12.018ZM5.14197 12.3238C5.2272 12.3917 5.31373 12.4558 5.40224 12.516L5.07859 12.9642C4.98024 12.8921 4.8763 12.8171 4.77894 12.7382L5.14197 12.3238ZM5.51557 12.5988C5.60703 12.6594 5.69919 12.7181 5.7936 12.7729L5.51172 13.2469C5.40256 13.1834 5.29616 13.117 5.19191 13.0468L5.51557 12.5988ZM8.6162 2.61754C8.74077 2.61754 8.86431 2.62266 8.98691 2.63292L8.93793 3.17815C8.83106 3.17046 8.72372 3.16594 8.6162 3.16466V2.61754ZM8.15617 3.17815L8.10671 2.63292C8.22931 2.62395 8.35285 2.61883 8.47742 2.61754V3.16466C8.37023 3.1685 8.26334 3.17234 8.15713 3.18003L8.15617 3.17815ZM9.63134 2.71368C9.75328 2.73579 9.87393 2.76075 9.99293 2.79056L9.84743 3.31948C9.74416 3.29448 9.63911 3.27239 9.5329 3.25316L9.63134 2.71368ZM13.7812 7.32158C13.7602 7.21773 13.7359 7.11522 13.7077 7.01393L14.2532 6.87248C14.2847 6.98884 14.3132 7.10713 14.3368 7.22733L13.7812 7.32158ZM14.3627 7.35915C14.3844 7.47838 14.4008 7.59858 14.4146 7.71974L13.8523 7.76775C13.8405 7.66197 13.8253 7.55819 13.8067 7.45434L14.3627 7.35915ZM13.6741 6.88411C13.6436 6.78314 13.6101 6.68312 13.5757 6.58408L14.1068 6.3965C14.1487 6.50997 14.1873 6.62505 14.222 6.74172L13.6741 6.88411ZM13.5248 6.45813C13.4845 6.36197 13.4428 6.26577 13.3966 6.16961L13.9089 5.9379C13.9614 6.04752 14.0106 6.15867 14.0559 6.27149L13.5248 6.45813ZM13.3365 6.04659C13.2887 5.95236 13.2381 5.85966 13.1843 5.76863L13.676 5.49455C13.7416 5.59904 13.8005 5.70579 13.8523 5.81476L13.3365 6.04659ZM13.1137 5.65231C13.0577 5.56288 12.9975 5.47533 12.9365 5.38879L13.3999 5.07538C13.4707 5.17154 13.5396 5.27531 13.6035 5.37916L13.1137 5.65231ZM12.8559 5.27916C12.7903 5.19454 12.7245 5.1122 12.659 5.03207L13.0921 4.68016C13.1718 4.77632 13.2484 4.87241 13.3212 4.96857L12.8559 5.27916ZM12.5668 4.92913C12.4953 4.85028 12.4215 4.77377 12.3454 4.69941L12.7449 4.31475C12.8321 4.40001 12.9165 4.48818 12.9985 4.57921L12.5668 4.92913ZM12.247 4.60515C12.1693 4.53304 12.089 4.46282 12.0064 4.39551L12.3699 3.97623C12.4682 4.05412 12.556 4.13496 12.6465 4.21862L12.247 4.60515ZM11.8998 4.309C11.8162 4.24361 11.7309 4.18008 11.6424 4.11662L11.967 3.66857C12.0654 3.73877 12.1635 3.81082 12.2619 3.88678L11.8998 4.309ZM11.5281 4.04255C11.4396 3.98421 11.3486 3.92879 11.2549 3.87622L11.5372 3.40223C11.6441 3.46634 11.7491 3.5304 11.8527 3.5945L11.5281 4.04255ZM11.1348 3.80896C11.0365 3.75896 10.945 3.71276 10.8477 3.66564L11.0868 3.16947C11.1989 3.22139 11.309 3.2762 11.4172 3.33486L11.1348 3.80896ZM10.7219 3.60894C10.6242 3.56663 10.5255 3.52716 10.4265 3.49062L10.6234 2.97614C10.7395 3.01845 10.8543 3.06405 10.9677 3.11277L10.7219 3.60894ZM10.293 3.44449C10.1914 3.41052 10.0888 3.37849 9.98524 3.34836L10.1317 2.81944C10.251 2.85149 10.3689 2.88745 10.4856 2.92719L10.293 3.44449ZM11.5814 12.5968L11.906 13.045C11.8018 13.1148 11.6951 13.1815 11.5862 13.245L11.3039 12.7709C11.3963 12.7183 11.4881 12.6616 11.5785 12.6007L11.5814 12.5968ZM11.6943 12.519C11.7828 12.4555 11.8704 12.3902 11.956 12.3267L12.319 12.7459C12.2207 12.8247 12.1221 12.8997 12.0189 12.9718L11.6943 12.519ZM12.0611 12.2305C12.1437 12.1603 12.2245 12.0872 12.3032 12.0122L12.7027 12.3969C12.6132 12.4834 12.5196 12.5671 12.4242 12.6479L12.0611 12.2305ZM12.7104 11.5746C12.7792 11.492 12.8463 11.4064 12.9072 11.3198L13.3692 11.6343C13.2964 11.7343 13.2204 11.8305 13.1411 11.9228L12.7104 11.5746ZM12.9889 11.2083C13.0499 11.1198 13.1086 11.0295 13.1637 10.9372L13.6554 11.2112C13.5925 11.317 13.5254 11.4208 13.4585 11.5228L12.9889 11.2083ZM13.2314 10.8236C13.2845 10.7307 13.3346 10.6346 13.3812 10.5352L13.8936 10.7669C13.8392 10.8779 13.7815 10.9868 13.7212 11.0939L13.2314 10.8236ZM13.4388 10.4169C13.4821 10.3208 13.5244 10.2246 13.5618 10.1217L14.0929 10.3093C14.0496 10.4247 14.0023 10.5371 13.9512 10.6486L13.4388 10.4169ZM13.6083 9.99482C13.6431 9.89481 13.676 9.79319 13.7068 9.68998L14.2523 9.83131C14.2188 9.9499 14.1823 10.0666 14.1423 10.1813L13.6083 9.99482ZM13.738 9.55922C13.7636 9.45633 13.786 9.3525 13.8057 9.24769L14.3618 9.34382C14.3401 9.46402 14.3135 9.58321 14.283 9.70148L13.738 9.55922ZM13.8273 9.11493C13.844 9.01108 13.8559 8.9053 13.8667 8.79953L14.4295 8.84765C14.4187 8.96977 14.404 9.09089 14.3843 9.21013L13.8273 9.11493ZM13.8768 8.66489C13.8836 8.56008 13.8873 8.45435 13.8873 8.34761H14.452C14.452 8.47005 14.4476 8.59156 14.4391 8.71208L13.8768 8.66489ZM13.8854 8.21297C13.8854 8.1072 13.8765 8.00145 13.8676 7.89663L14.4304 7.84851C14.4403 7.9687 14.4472 8.08989 14.4501 8.21297H13.8854ZM9.49736 2.68586L9.39892 3.22522C9.29369 3.20888 9.18777 3.19542 9.07959 3.18485L9.12857 2.63961C9.25117 2.65564 9.37471 2.67332 9.49928 2.69255L9.49736 2.68586ZM7.97129 2.63961L8.02028 3.18485C7.91308 3.19542 7.80665 3.20888 7.70142 3.22522L7.60346 2.68586C7.72246 2.67528 7.84546 2.65796 7.96937 2.64642L7.97129 2.63961ZM5.63465 13.3132L5.91653 12.8392C6.01487 12.8921 6.11351 12.9421 6.21185 12.9892L5.97271 13.4854C5.85536 13.4341 5.74174 13.3779 5.63225 13.317L5.63465 13.3132ZM7.58378 13.9864L7.68174 13.4469C7.78991 13.4642 7.90053 13.4787 8.01067 13.4892L7.96121 14.0344C7.83238 14.0219 7.70675 14.0065 7.58185 13.9873L7.58378 13.9864ZM9.13865 14.0344L9.08919 13.4892C9.20032 13.4787 9.30947 13.4642 9.41765 13.4469L9.51609 13.9864C9.38923 14.0065 9.26312 14.022 9.13625 14.0354L9.13865 14.0344ZM11.1291 13.4882L10.8899 12.992C10.9896 12.9452 11.0877 12.8952 11.1848 12.842L11.4671 13.3161C11.3544 13.3777 11.2412 13.4354 11.1272 13.4892L11.1291 13.4882Z" fill="url(#paint5_linear_1157_11410)"/>
<path d="M16.2062 8.30809L15.6247 7.58115C15.3892 7.28721 15.2168 6.94994 15.1171 6.58952C15.0174 6.2291 14.9927 5.85287 15.0446 5.48297L15.1733 4.57139L14.294 4.22324C13.9386 4.08283 13.6156 3.87448 13.3437 3.61027C13.0718 3.34607 12.8566 3.03136 12.7108 2.68472L12.3516 1.83277L11.4119 1.95778C11.0311 2.00828 10.6437 1.98461 10.2724 1.88806C9.90104 1.79151 9.55294 1.62404 9.24812 1.3953L8.49853 0.830811L7.74846 1.3953C7.44378 1.62427 7.09558 1.79186 6.7242 1.88841C6.35283 1.98497 5.96545 2.00855 5.5847 1.95778L4.64351 1.83277L4.28576 2.68472C4.13954 3.03143 3.92413 3.34608 3.6519 3.61027C3.37968 3.87447 3.05582 4.08286 2.70015 4.22324L1.82235 4.57139L1.95104 5.48297C2.00344 5.85281 1.97901 6.22916 1.87949 6.58964C1.77998 6.95011 1.60754 7.28733 1.37192 7.58115L0.790405 8.30809L1.37192 9.03503C1.60754 9.32886 1.77998 9.66608 1.87949 10.0265C1.97901 10.387 2.00344 10.7634 1.95104 11.1332L1.82235 12.0448L2.70015 12.3928C3.05582 12.5332 3.37968 12.7416 3.6519 13.0058C3.92413 13.27 4.13954 13.5848 4.28576 13.9315L4.64351 14.7834L5.5847 14.6584C5.96546 14.6076 6.35282 14.6311 6.7242 14.7277C7.09559 14.8242 7.44381 14.9919 7.74846 15.2209L8.49853 15.7844L9.24812 15.2209C9.55291 14.9921 9.90104 14.8246 10.2724 14.728C10.6437 14.6315 11.0311 14.6079 11.4119 14.6584L12.3516 14.7834L12.7108 13.9315C12.8566 13.5848 13.0718 13.2701 13.3437 13.0059C13.6156 12.7417 13.9386 12.5332 14.294 12.3928L15.1733 12.0448L15.0446 11.1332C14.9927 10.7633 15.0174 10.387 15.1171 10.0265C15.2168 9.66613 15.3892 9.32897 15.6247 9.03503L16.2062 8.30809ZM12.7483 12.2785L12.3488 11.8938C12.4255 11.8169 12.4983 11.738 12.5701 11.6563L13.0018 12.0083C12.9212 12.1016 12.8368 12.1929 12.7492 12.2804L12.7483 12.2785ZM9.50263 13.391C9.61212 13.3712 9.72037 13.3481 9.82724 13.3218L9.97274 13.8506C9.84981 13.8814 9.72596 13.9073 9.60107 13.9304L9.50263 13.391ZM9.96121 13.2862C10.0681 13.2567 10.1731 13.2247 10.2767 13.1901L10.4736 13.7044C10.3543 13.7455 10.2329 13.783 10.1096 13.817L9.96121 13.2862ZM10.4078 13.142C10.5114 13.1035 10.6137 13.0621 10.7146 13.0179L10.9523 13.5141C10.837 13.5653 10.72 13.6128 10.6013 13.6564L10.4078 13.142ZM8.49853 13.2449C7.50178 13.2367 6.52995 12.9402 5.70522 12.3928C4.8805 11.8454 4.23982 11.0716 3.86415 10.1688C3.48848 9.26605 3.39471 8.27476 3.59428 7.31986C3.79384 6.36496 4.27812 5.48915 4.98589 4.80286C5.69366 4.11657 6.59303 3.65047 7.57127 3.46331C8.54951 3.27615 9.56258 3.37629 10.4827 3.75113C11.4028 4.12597 12.1891 4.75878 12.742 5.56971C13.295 6.38064 13.59 7.33346 13.5901 8.30809C13.5875 8.95918 13.4535 9.60335 13.1963 10.2039C12.9391 10.8045 12.5636 11.3497 12.0909 11.8083C11.6182 12.2669 11.0581 12.63 10.4419 12.8768C9.8257 13.1236 9.16538 13.2493 8.49949 13.2468L8.49853 13.2449ZM8.4289 14.0295C8.30106 14.0295 8.17399 14.0228 8.04811 14.0141L8.09757 13.4689C8.20673 13.4766 8.31777 13.4814 8.4289 13.4824V14.0295ZM8.89998 13.4689L8.94896 14.0141C8.82308 14.0237 8.69649 14.0285 8.56864 14.0295V13.4824C8.68075 13.4833 8.79082 13.4785 8.89998 13.4709V13.4689ZM7.39648 13.9304C7.27125 13.9073 7.14693 13.8807 7.02433 13.8506L7.17031 13.3218C7.27652 13.3487 7.38432 13.3718 7.49348 13.391L7.39648 13.9304ZM6.72084 13.189C6.82509 13.2249 6.93012 13.2571 7.03633 13.2853L6.88987 13.8141C6.76727 13.7801 6.64617 13.7427 6.52684 13.7016L6.72084 13.189ZM6.39719 13.6574C6.27786 13.6138 6.1609 13.5663 6.04616 13.515L6.28482 13.0188C6.38317 13.0631 6.48649 13.1044 6.58975 13.1429L6.39719 13.6574ZM7.51317 3.22221C7.40794 3.24144 7.30288 3.26365 7.19864 3.28865L7.05314 2.75973C7.17312 2.73088 7.29324 2.70496 7.41617 2.68285L7.51317 3.22221ZM7.0637 3.31846C6.96044 3.34635 6.85717 3.3771 6.75686 3.4146L6.56046 2.90012C6.67749 2.86069 6.79534 2.82515 6.91532 2.79342L7.0637 3.31846ZM6.62528 3.45686C6.52432 3.4934 6.42616 3.53287 6.33044 3.57518L6.09034 3.07901C6.20377 3.02965 6.3189 2.98404 6.4356 2.94238L6.62528 3.45686ZM6.20031 3.63187C6.10328 3.67675 6.00756 3.72455 5.91315 3.77519L5.63079 3.30109C5.73897 3.24244 5.84956 3.18763 5.96069 3.1357L6.20031 3.63187ZM5.7931 3.84245C5.7 3.89566 5.60903 3.95109 5.51987 4.00878L5.19622 3.56074C5.29849 3.49343 5.4037 3.42925 5.51123 3.36835L5.7931 3.84245ZM5.40558 4.08578C5.31806 4.14636 5.23277 4.20978 5.1482 4.27805L4.78517 3.85877C4.88351 3.7828 4.98214 3.70979 5.08049 3.64056L5.40558 4.08578ZM5.04111 4.36081C4.95949 4.42812 4.87871 4.49821 4.80101 4.57033L4.40149 4.18579C4.49098 4.10213 4.58367 4.02129 4.67808 3.9434L5.04111 4.36081ZM4.70257 4.66565C4.62652 4.74001 4.55297 4.81651 4.48216 4.89536L4.0495 4.54345C4.13146 4.45242 4.21633 4.36425 4.30353 4.27899L4.70257 4.66565ZM4.39189 4.99736C4.32632 5.0775 4.26057 5.15983 4.195 5.24445L3.73305 4.93093C3.80648 4.83349 3.88278 4.7374 3.96211 4.64252L4.39189 4.99736ZM4.11145 5.35408C4.05048 5.43967 3.99082 5.52818 3.93378 5.6176L3.44205 5.34352C3.50762 5.24031 3.57581 5.13898 3.64662 5.03962L4.11145 5.35408ZM3.86367 5.73393C3.80958 5.82432 3.75963 5.91753 3.71145 6.01177L3.19907 5.78006C3.25415 5.67108 3.31254 5.56434 3.37483 5.45984L3.86367 5.73393ZM3.65142 6.13291C3.60618 6.22906 3.56401 6.32527 3.52369 6.42143L2.99259 6.23397C3.03783 6.1205 3.0866 6.00924 3.13905 5.90026L3.65142 6.13291ZM3.47423 6.54937C3.43784 6.64553 3.40431 6.74843 3.37579 6.8494L2.83028 6.70796C2.8647 6.5916 2.90372 6.47621 2.94601 6.36274L3.47423 6.54937ZM3.33641 6.97911C3.30986 7.08103 3.28458 7.18303 3.26294 7.28688L2.70735 7.19074C2.73194 7.07151 2.75941 6.95321 2.79187 6.8359L3.33641 6.97911ZM3.23845 7.41952C3.21977 7.52337 3.20463 7.62727 3.19283 7.73304L2.63052 7.68492C2.64429 7.56376 2.66219 7.44356 2.68382 7.32432L3.23845 7.41952ZM3.17939 7.86674C3.16955 7.97155 3.16361 8.07635 3.16066 8.18308H2.59595C2.59595 8.06096 2.60578 7.93977 2.6166 7.81861L3.17939 7.86674ZM3.1597 8.31772C3.1597 8.42445 3.15945 8.53019 3.17026 8.635L2.60795 8.68312C2.60008 8.56293 2.59499 8.44078 2.59499 8.31866L3.1597 8.31772ZM3.18035 8.76869C3.19018 8.87511 3.20333 8.98025 3.21972 9.0841L2.66317 9.18023C2.64416 9.06035 2.62901 8.93956 2.61852 8.81776L3.18035 8.76869ZM3.24133 9.21674C3.261 9.32155 3.28347 9.42538 3.30904 9.52827L2.7645 9.66971C2.73434 9.55176 2.70804 9.43245 2.68574 9.31193L3.24133 9.21674ZM3.33977 9.65809C3.36862 9.7613 3.40102 9.86292 3.43773 9.96293L2.90808 10.1505C2.86775 10.0351 2.83008 9.91875 2.79763 9.80047L3.33977 9.65809ZM3.48239 10.0899C3.52042 10.1899 3.56139 10.2883 3.60532 10.3851L3.09295 10.6169C3.04181 10.5053 2.99456 10.3921 2.95129 10.2774L3.48239 10.0899ZM3.66295 10.5082C3.71015 10.6043 3.76163 10.7005 3.81277 10.7967L3.32105 11.0707C3.26007 10.9639 3.20178 10.8543 3.14769 10.7437L3.66295 10.5082ZM3.88047 10.9101C3.93653 11.0062 3.99477 11.0928 4.05575 11.1812L3.59236 11.4957C3.52253 11.3947 3.45448 11.2899 3.39548 11.1842L3.88047 10.9101ZM4.13402 11.2947C4.19958 11.3819 4.26534 11.4669 4.3309 11.5496L3.89824 11.9015C3.81891 11.8066 3.74292 11.7105 3.67015 11.6131L4.13402 11.2947ZM4.42214 11.6534C4.49196 11.7352 4.56682 11.814 4.64255 11.8909L4.2435 12.2756C4.15565 12.1871 4.07047 12.096 3.98852 12.0024L4.42214 11.6534ZM4.74099 11.987C4.81901 12.062 4.89974 12.1349 4.98301 12.2054L4.61998 12.6247C4.52163 12.5439 4.43144 12.4602 4.34194 12.3746L4.74099 11.987ZM5.08817 12.2928C5.17275 12.3611 5.26041 12.4266 5.34892 12.4852L5.02527 12.9333C4.92233 12.8608 4.82218 12.7855 4.72514 12.7073L5.08817 12.2928ZM5.46273 12.5678C5.5532 12.6287 5.64617 12.6868 5.74124 12.7419L5.45792 13.216C5.34876 13.1526 5.24236 13.0862 5.13811 13.016L5.46273 12.5678ZM8.56384 2.58659C8.68874 2.58659 8.81162 2.59236 8.93455 2.60197L8.88509 3.14721C8.77888 3.13951 8.67202 3.13575 8.56384 3.13382V2.58659ZM8.10237 3.14721L8.05339 2.60197C8.17632 2.59332 8.30019 2.58852 8.4241 2.58659V3.13382C8.32182 3.13767 8.21533 3.14151 8.10813 3.1492L8.10237 3.14721ZM9.57754 2.68285C9.69948 2.70496 9.82157 2.73088 9.94057 2.75973L9.79507 3.28865C9.69148 3.26365 9.58627 3.24144 9.48006 3.22221L9.57754 2.68285ZM13.7288 7.29075C13.7072 7.1869 13.6825 7.08395 13.6539 6.98298L14.1999 6.84165C14.232 6.95832 14.2602 7.07662 14.2844 7.19649L13.7288 7.29075ZM14.3089 7.3282C14.3306 7.44679 14.3481 7.56699 14.3613 7.68879L13.7985 7.73692C13.7867 7.63114 13.772 7.52724 13.7533 7.42339L14.3089 7.3282ZM13.6203 6.85316C13.5895 6.75187 13.5571 6.65185 13.5224 6.55313L14.0544 6.36567C14.0964 6.47914 14.1344 6.59422 14.1692 6.71089L13.6203 6.85316ZM13.471 6.42718C13.4316 6.33102 13.3885 6.23493 13.3432 6.13878L13.8556 5.90695C13.9077 6.01657 13.9539 6.12816 14.0021 6.24066L13.471 6.42718ZM13.2832 6.01564C13.235 5.91948 13.1851 5.82915 13.131 5.7378L13.6227 5.46372C13.6847 5.56853 13.7434 5.67527 13.7975 5.78393L13.2832 6.01564ZM13.0599 5.62136C13.0035 5.53161 12.9441 5.44386 12.8818 5.35796L13.3452 5.04349C13.416 5.13965 13.4839 5.24354 13.5488 5.34739L13.0599 5.62136ZM12.8021 5.24832C12.7381 5.1637 12.6725 5.08105 12.6057 5.00124L13.0383 4.64921C13.1176 4.74152 13.1939 4.83773 13.2674 4.93773L12.8021 5.24832ZM12.513 4.89829C12.4422 4.81944 12.3691 4.74282 12.2931 4.66846L12.6921 4.2838C12.7793 4.36907 12.8637 4.45723 12.9456 4.54826L12.513 4.89829ZM12.1937 4.57421C12.116 4.50209 12.0352 4.43187 11.9536 4.36456L12.3166 3.9454C12.411 4.0236 12.5029 4.10433 12.5927 4.18767L12.1937 4.57421ZM11.8465 4.27805C11.7639 4.21267 11.6771 4.14925 11.5886 4.08578L11.9132 3.63762C12.0116 3.70686 12.1097 3.77999 12.2081 3.85595L11.8465 4.27805ZM11.4748 4.01172C11.3863 3.95402 11.2935 3.89827 11.2011 3.84539L11.4834 3.37129C11.5903 3.43539 11.695 3.49945 11.798 3.56356L11.4748 4.01172ZM11.081 3.77801C10.9827 3.72801 10.8922 3.68192 10.7939 3.63481L11.033 3.13864C11.1451 3.19056 11.2552 3.24569 11.3634 3.30403L11.081 3.77801ZM10.669 3.57799C10.5713 3.53568 10.4732 3.49633 10.3742 3.45979L10.5711 2.94531C10.6871 2.98762 10.8018 3.03278 10.9139 3.08182L10.669 3.57799ZM10.2392 3.41366C10.1409 3.38 10.0357 3.34818 9.93144 3.31741L10.0784 2.78861C10.1984 2.82034 10.3162 2.85684 10.4332 2.89531L10.2392 3.41366ZM11.5286 12.566L11.8532 13.014C11.7489 13.0839 11.6427 13.1506 11.5339 13.214L11.2515 12.74C11.3469 12.6891 11.439 12.6352 11.5305 12.5698L11.5286 12.566ZM11.6419 12.488C11.7304 12.4246 11.8181 12.3592 11.9036 12.2958L12.2652 12.715C12.1682 12.7933 12.07 12.8686 11.9704 12.941L11.6419 12.488ZM12.0088 12.1996C12.0914 12.1294 12.1721 12.0563 12.2508 11.9813L12.6498 12.366C12.56 12.4525 12.467 12.5358 12.3713 12.616L12.0088 12.1996ZM12.6575 11.5438C12.7264 11.4611 12.7934 11.3755 12.8544 11.289L13.3168 11.6034C13.2441 11.6996 13.1669 11.8015 13.0883 11.8918L12.6575 11.5438ZM12.9351 11.1775C12.997 11.089 13.0548 10.9986 13.1099 10.9063L13.6016 11.1803C13.536 11.2861 13.4708 11.39 13.4052 11.4919L12.9351 11.1775ZM13.179 10.7928C13.2315 10.6999 13.2812 10.6037 13.3284 10.5043L13.8407 10.7351C13.7866 10.8456 13.7288 10.9553 13.6679 11.0621L13.179 10.7928ZM13.3855 10.3861C13.4288 10.2899 13.4701 10.1938 13.5084 10.0909L14.0395 10.2783C13.9956 10.3931 13.948 10.5063 13.8969 10.6178L13.3855 10.3861ZM13.5545 9.96387C13.5893 9.86386 13.6222 9.76236 13.653 9.65915L14.198 9.80047C14.1652 9.91843 14.1285 10.0351 14.0885 10.1505L13.5545 9.96387ZM13.6847 9.52827C13.7102 9.42538 13.7337 9.32251 13.7514 9.21674L14.308 9.31287C14.2863 9.43403 14.2597 9.55334 14.2292 9.67065L13.6847 9.52827ZM13.7749 9.0841C13.7917 8.98025 13.8035 8.87447 13.8134 8.76869L14.3757 8.8167C14.3639 8.93882 14.3502 9.06006 14.3305 9.17929L13.7749 9.0841ZM13.8239 8.63406C13.8311 8.52893 13.835 8.42319 13.835 8.31678H14.3992C14.3992 8.43922 14.3955 8.56061 14.3877 8.68113L13.8239 8.63406ZM13.834 8.18214C13.834 8.07573 13.828 7.97018 13.8162 7.86568L14.3785 7.81767C14.389 7.93819 14.3959 8.0597 14.3992 8.18214H13.834ZM9.44596 2.65491L9.34752 3.19439C9.24197 3.17837 9.13523 3.16491 9.02771 3.15401L9.07813 2.60878C9.20303 2.62705 9.32202 2.64237 9.44692 2.6616L9.44596 2.65491ZM7.91941 2.60878L7.96887 3.15401C7.86168 3.16459 7.75525 3.17805 7.65002 3.19439L7.55158 2.65491C7.67451 2.64241 7.79646 2.62701 7.92037 2.61547L7.91941 2.60878ZM5.58277 13.2823L5.86513 12.8082C5.96085 12.8608 6.059 12.9108 6.15997 12.9583L5.92131 13.4544C5.80658 13.4031 5.69419 13.3471 5.5847 13.2862L5.58277 13.2823ZM7.5319 13.9554L7.63034 13.416C7.73917 13.4333 7.84895 13.4474 7.95975 13.4583L7.91077 14.0035C7.78423 13.9888 7.65808 13.9727 7.53286 13.9554H7.5319ZM9.08677 14.0045L9.03779 13.4592C9.1486 13.4483 9.25807 13.4343 9.36625 13.417L9.46469 13.9565C9.34078 13.9731 9.21493 13.9891 9.08773 14.0045H9.08677ZM11.0762 13.4583L10.8385 12.9621C10.9375 12.9153 11.0357 12.8653 11.1334 12.8121L11.4157 13.2862C11.3056 13.3471 11.1929 13.4044 11.0782 13.4583H11.0762Z" fill="url(#paint6_linear_1157_11410)"/>
<path d="M1.50016 8.00716C1.74225 7.70205 1.91948 7.35274 2.02165 6.97973C2.12383 6.60671 2.14885 6.21748 2.09512 5.83491L1.96307 4.89164L2.86488 4.53198C3.23043 4.38594 3.56294 4.17005 3.84208 3.89695C4.12122 3.62385 4.34169 3.29898 4.49083 2.94147L4.85962 2.0597L5.82434 2.18859C6.2156 2.24107 6.61357 2.21665 6.99506 2.11675C7.37654 2.01685 7.73366 1.8435 8.04573 1.60685L8.81597 1.02311L9.58572 1.60685C9.89767 1.84338 10.2551 2.01662 10.6364 2.11652C11.0177 2.21641 11.4155 2.24093 11.8066 2.18859L12.7406 2.06358L12.6614 1.87131L11.6962 2.00007C11.3051 2.05253 10.9073 2.02814 10.5259 1.92824C10.1446 1.82834 9.78765 1.65496 9.47576 1.41833L8.706 0.834717L7.93577 1.41833C7.62387 1.65496 7.2669 1.82834 6.88557 1.92824C6.50425 2.02814 6.10644 2.05253 5.71533 2.00007L4.74918 1.87131L4.38134 2.75307C4.2321 3.11041 4.01173 3.43504 3.7326 3.70797C3.45346 3.9809 3.12133 4.1966 2.75588 4.34253L1.85407 4.70218L1.98612 5.64546C2.04053 6.0277 2.01637 6.4168 1.91505 6.7898C1.81373 7.1628 1.63718 7.51224 1.39596 7.81771L0.799072 8.57059L0.927765 8.73316L1.50016 8.00716Z" fill="url(#paint7_linear_1157_11410)"/>
<path d="M11.7475 7.99711L11.0454 7.08659C10.9895 7.01727 10.9183 6.96112 10.837 6.92249C10.7558 6.88386 10.6666 6.8637 10.5763 6.86345H9.9554V6.57493C9.95514 6.35457 9.86592 6.14334 9.70666 5.98743C9.54739 5.83153 9.33129 5.74367 9.10593 5.74316H6.08261C5.85707 5.74342 5.64088 5.83115 5.4814 5.98708C5.32192 6.14301 5.23244 6.3544 5.23218 6.57493V9.45111C5.23244 9.67163 5.32192 9.88302 5.4814 10.039C5.64088 10.1949 5.85707 10.2826 6.08261 10.2829H6.13879C6.1998 10.4653 6.31883 10.6241 6.47829 10.7361C6.63775 10.8481 6.82938 10.9075 7.02571 10.9058C7.22205 10.9041 7.41286 10.8413 7.57026 10.7266C7.72765 10.6118 7.84344 10.451 7.90111 10.2675H9.06943C9.12867 10.4525 9.24729 10.614 9.40749 10.7282C9.56769 10.8424 9.76097 10.9033 9.95924 10.9019C10.1575 10.9005 10.3501 10.8369 10.5086 10.7205C10.6671 10.604 10.7834 10.4408 10.8399 10.2549H11.6135C11.6918 10.2549 11.7671 10.2245 11.8224 10.1704C11.8777 10.1163 11.9088 10.043 11.9088 9.96653V8.45196C11.9057 8.28748 11.8491 8.1282 11.7475 7.99711V7.99711ZM7.45885 10.1261C7.42961 10.2264 7.36557 10.3138 7.27782 10.3733C7.19007 10.4327 7.08361 10.4605 6.97721 10.452C6.87082 10.4435 6.77108 10.3992 6.69438 10.3267C6.61767 10.2541 6.56921 10.1577 6.55704 10.054V10.0242V10.003C6.55772 9.88989 6.6016 9.78112 6.68045 9.69831C6.75931 9.61551 6.86713 9.56476 6.9825 9.55605C7.09787 9.54733 7.21234 9.58127 7.30327 9.65124C7.39419 9.72122 7.45482 9.82208 7.47326 9.93378C7.47716 9.95666 7.47948 9.97984 7.4795 10.003C7.47835 10.0444 7.47172 10.0854 7.45981 10.1251L7.45885 10.1261ZM9.9506 10.454C9.83699 10.454 9.72736 10.4129 9.64279 10.3387C9.55822 10.2646 9.50484 10.1625 9.49249 10.0521C9.4915 10.0367 9.4915 10.0212 9.49249 10.0059V10.0059C9.49268 9.91693 9.51963 9.83016 9.57028 9.7563C9.62093 9.68244 9.69271 9.62485 9.77677 9.59091C9.86082 9.55697 9.95361 9.54816 10.0428 9.56556C10.132 9.58295 10.2138 9.62581 10.2781 9.68869C10.3424 9.75157 10.3861 9.83167 10.4039 9.91887C10.4217 10.0061 10.4127 10.0964 10.378 10.1786C10.3433 10.2608 10.2845 10.3311 10.2089 10.3806C10.1334 10.4302 10.0444 10.4568 9.95348 10.4569L9.9506 10.454ZM11.4416 9.80396H10.8514C10.8051 9.60263 10.6897 9.42287 10.5244 9.29452C10.3592 9.16618 10.154 9.09704 9.94291 9.0985C9.73187 9.09996 9.52766 9.17201 9.36428 9.30262C9.20089 9.43324 9.08834 9.61457 9.04494 9.81652H7.91792C7.87399 9.6122 7.7592 9.42903 7.59283 9.29816C7.42645 9.1673 7.21858 9.0968 7.00507 9.09861C6.79155 9.10043 6.58517 9.17447 6.42115 9.30814C6.25712 9.44181 6.14595 9.62686 6.10566 9.83189H6.07877C5.97626 9.83189 5.87801 9.79207 5.80553 9.7212C5.73305 9.65033 5.69221 9.55415 5.69221 9.45393V6.57786C5.69221 6.47763 5.73305 6.38157 5.80553 6.3107C5.87801 6.23983 5.97626 6.20001 6.07877 6.20001H9.10497C9.20747 6.20001 9.30572 6.23983 9.3782 6.3107C9.45068 6.38157 9.49153 6.47763 9.49153 6.57786V8.66736C9.49153 8.72754 9.51571 8.78526 9.55924 8.82782C9.60276 8.87038 9.66191 8.89437 9.72346 8.89437C9.78502 8.89437 9.84416 8.87038 9.88769 8.82782C9.93122 8.78526 9.9554 8.72754 9.9554 8.66736V7.32112H10.5753C10.5942 7.32144 10.6126 7.32583 10.6296 7.33379C10.6466 7.34176 10.6613 7.3532 10.6733 7.36736L11.3729 8.27413C11.4146 8.32996 11.437 8.39728 11.4368 8.4664L11.4416 9.80396Z" fill="#2E1B12"/>
<defs>
<linearGradient id="paint0_linear_1157_11410" x1="7.67374" y1="13.3867" x2="1.62825" y2="17.9178" gradientUnits="userSpaceOnUse">
<stop stop-color="#FFE67E"/>
<stop offset="0.5" stop-color="#E5AF52"/>
<stop offset="1" stop-color="#84591C"/>
</linearGradient>
<linearGradient id="paint1_linear_1157_11410" x1="11.4272" y1="20.0908" x2="9.0573" y2="14.7519" gradientUnits="userSpaceOnUse">
<stop stop-color="#FFE67E"/>
<stop offset="0.5" stop-color="#E5AF52"/>
<stop offset="1" stop-color="#84591C"/>
</linearGradient>
<linearGradient id="paint2_linear_1157_11410" x1="3.06" y1="8.31104" x2="12.988" y2="8.31104" gradientUnits="userSpaceOnUse">
<stop stop-color="#84591C"/>
<stop offset="0.5" stop-color="#E5AF52"/>
<stop offset="1" stop-color="#FFE67E"/>
</linearGradient>
<linearGradient id="paint3_linear_1157_11410" x1="5.4846" y1="5.41577" x2="10.8721" y2="11.0015" gradientUnits="userSpaceOnUse">
<stop stop-color="#37190C"/>
<stop offset="1" stop-color="#1F120C"/>
</linearGradient>
<linearGradient id="paint4_linear_1157_11410" x1="4.95859" y1="10.7446" x2="11.2743" y2="6.09829" gradientUnits="userSpaceOnUse">
<stop stop-color="#FFE67E"/>
<stop offset="0.5" stop-color="#E5AF52"/>
<stop offset="1" stop-color="#84591C"/>
</linearGradient>
<linearGradient id="paint5_linear_1157_11410" x1="0.842285" y1="8.3418" x2="16.2557" y2="8.3418" gradientUnits="userSpaceOnUse">
<stop stop-color="#37190C"/>
<stop offset="1" stop-color="#1F120C"/>
</linearGradient>
<linearGradient id="paint6_linear_1157_11410" x1="0.790405" y1="8.30762" x2="16.2062" y2="8.30762" gradientUnits="userSpaceOnUse">
<stop stop-color="#96661D"/>
<stop offset="0.228" stop-color="#CE9737"/>
<stop offset="0.414" stop-color="#FFE67E"/>
<stop offset="0.586" stop-color="#E5AF52"/>
<stop offset="0.772" stop-color="#FFCD65"/>
<stop offset="1" stop-color="#A97B2C"/>
</linearGradient>
<linearGradient id="paint7_linear_1157_11410" x1="0.799072" y1="4.78394" x2="12.7406" y2="4.78394" gradientUnits="userSpaceOnUse">
<stop stop-color="#FFCD65"/>
<stop offset="0.5" stop-color="#FFE67E"/>
<stop offset="1" stop-color="#E5AF52"/>
</linearGradient>
</defs>
</svg>
